<svg xmlns="http://www.w3.org/2000/svg" width="32" height="32">
  <path data-name="BOOK 2" d="M31.07 25.89l-14.48 5.99a1.53 1.53 0 01-1.18 0L.94 25.89A1.5 1.5 0 010 24.5v-23A1.5 1.5 0 011.5 0a1.55 1.55 0 01.57.11.01.01 0 00.02.01L16 5.88 29.91.12a.01.01 0 00.01-.01A1.55 1.55 0 0130.5 0 1.5 1.5 0 0132 1.5v23a1.5 1.5 0 01-.93 1.39zM14.5 8.5L3 3.74V23.5l11.5 4.76V8.5zM29 3.74L17.5 8.5v19.76L29 23.5V3.74zm-9.12 6.89l5.5-2.5A1.6 1.6 0 0126 8a1.5 1.5 0 01.62 2.87l-5.5 2.5a1.6 1.6 0 01-.62.13 1.5 1.5 0 01-.62-2.87zm0 5.5l5.5-2.5a1.6 1.6 0 01.62-.13 1.5 1.5 0 01.62 2.87l-5.5 2.5v-.01a1.45 1.45 0 01-.62.14 1.5 1.5 0 01-.62-2.87zm0 5.5l5.5-2.5A1.6 1.6 0 0126 19a1.5 1.5 0 01.62 2.87l-5.5 2.5a1.6 1.6 0 01-.62.13 1.5 1.5 0 01-.62-2.87zM6 8a1.6 1.6 0 01.62.13l5.5 2.5a1.5 1.5 0 01-.62 2.87 1.6 1.6 0 01-.62-.13l-5.5-2.5A1.5 1.5 0 016 8zm0 5.5a1.6 1.6 0 01.62.13l5.5 2.5A1.5 1.5 0 0111.5 19a1.44 1.44 0 01-.62-.14v.01l-5.5-2.5A1.5 1.5 0 016 13.5zM6 19a1.6 1.6 0 01.62.13l5.5 2.5a1.5 1.5 0 01-.62 2.87 1.6 1.6 0 01-.62-.13l-5.5-2.5A1.5 1.5 0 016 19z" fill="#95e1d3" fill-rule="evenodd"/>
</svg>
